<svg width="256" height="262" viewBox="0 0 256 262" fill="none" xmlns="http://www.w3.org/2000/svg">
<path d="M64.1374 258.504C61.7043 258.346 57.0409 257.738 54.9006 257.287C45.5737 255.327 35.4358 250.551 27.9788 244.559C25.3204 242.418 19.3728 236.448 17.3452 233.88C14.8446 230.726 11.5554 225.612 9.8657 222.21C5.45007 213.379 3.33237 205.201 3.0395 195.761C2.81421 187.966 3.53513 182.086 5.65283 174.517C7.4326 168.164 9.52777 163.613 12.8395 158.747C17.3903 152.123 19.3052 150.524 22.662 150.524C25.816 150.524 28.6772 153.407 28.7448 156.606C28.7673 158.206 28.159 159.445 25.5006 163.14C21.7383 168.366 19.1025 174.089 17.5029 180.487C16.5342 184.407 16.4441 185.015 16.0386 190.354C15.7682 194.297 16.2413 200.875 17.0749 204.525C19.3503 214.483 24.9825 224.26 32.7324 231.762C35.9089 234.826 39.5811 237.439 44.0643 239.873C46.3172 241.089 51.1158 243.094 53.1434 243.68C54.2022 243.995 55.1259 244.288 55.216 244.333C55.2836 244.401 57.131 244.761 59.2937 245.167C63.0785 245.888 63.4615 245.91 68.7558 245.933C73.0137 245.933 74.816 245.843 76.6408 245.527C82.0703 244.604 83.8726 244.131 88.153 242.418C98.336 238.363 105.613 232.889 111.786 224.666C113.227 222.751 115.097 220.475 115.773 219.845C116.539 219.146 118.634 218.335 119.738 218.335C122.014 218.335 124.176 219.732 125.235 221.895C125.753 222.954 125.866 223.472 125.866 224.868C125.866 227.009 125.213 228.405 122.577 231.965C113.453 244.243 101.332 252.331 85.5397 256.702C82.3181 257.58 80.2454 257.918 74.8385 258.436C72.8335 258.639 66.6381 258.662 64.1374 258.504Z" fill="#E7EEF2" stroke="#E7EEF2" stroke-width="6"/>
<path d="M183.652 258.414C179.417 258.121 175.587 257.558 172.726 256.837C170.135 256.161 163.376 253.953 161.461 253.142C158.803 252.016 155.041 250.078 155.131 249.898C155.198 249.785 156.055 249.695 157.001 249.673C160.177 249.628 163.264 249.087 166.17 248.073C167.477 247.622 171.036 245.753 172.636 244.649L173.447 244.108L176.015 244.604C181.399 245.685 183.382 245.888 188.271 245.91C194.691 245.91 199.963 245.099 204.807 243.342C214.134 239.985 220.87 235.615 226.254 229.419C230.174 224.936 232.585 221.376 235.063 216.42C236.009 214.528 237.879 209.887 238.037 209.098C238.082 208.783 238.284 207.927 238.465 207.183C238.96 205.291 239.681 201.258 239.951 198.848C240.515 194.049 239.997 188.147 238.42 181.929C237.428 177.941 236.707 175.981 234.905 172.264C233.351 169.065 232.134 167.195 229.025 163.027C227.628 161.157 226.322 159.265 226.119 158.814C224.587 155.12 228.011 150.591 232.314 150.659C234.522 150.704 236.167 151.74 238.555 154.624C245.471 162.937 250.225 173.052 251.937 182.965C252.725 187.561 252.86 188.913 252.973 193.216C253.108 198.442 252.748 202.272 251.554 208.085C248.242 224.531 237.609 239.67 222.965 248.862C215.508 253.548 206.609 256.882 198.859 257.873C193.407 258.594 188.541 258.752 183.652 258.414Z" fill="#E7EEF2" stroke="#E7EEF2" stroke-width="6"/>
<path d="M159.366 238.588C156.212 238.183 154.117 237.259 150.513 234.668C147.967 232.821 147.539 232.461 144.295 229.262C138.167 223.246 131.048 214.077 125.979 205.719C123.929 202.34 119.648 193.531 117.305 187.921C115.278 183.1 111.11 175.778 108.542 172.512C106.469 169.921 103.698 166.834 101.738 164.942C97.3673 160.729 93.988 158.319 88.3108 155.39C84.5034 153.407 82.0703 152.506 78.4432 151.65C77.2717 151.38 75.8524 151.019 75.2892 150.862L74.2754 150.591L76.303 148.654C79.9076 145.207 82.2956 144.171 86.6662 144.148C89.7752 144.125 91.1945 144.418 95.0018 145.928C102.098 148.699 109.353 154.196 115.841 161.675C119.919 166.384 124.605 173.908 127.421 180.262C133.639 194.229 135.554 197.947 139.924 204.367C141.208 206.282 142.582 208.31 142.965 208.873C143.867 210.202 147.989 215.316 149.769 217.321C156.528 224.936 163.85 230.163 171.577 232.889L173.379 233.519L172.208 234.556C170.946 235.682 167.77 237.439 165.967 238.003C164.908 238.341 161.642 238.881 161.056 238.814C160.898 238.791 160.155 238.701 159.366 238.588Z" fill="#E7EEF2" stroke="#E7EEF2" stroke-width="6"/>
<path d="M138.144 167.668C138.144 167.443 138.708 166.767 143.912 160.864C145.511 159.062 147.223 157.102 147.719 156.516C148.598 155.48 148.665 155.435 151.324 154.804C162.453 152.056 172.703 145.748 179.755 137.232C187.798 127.544 192.596 116.415 193.768 104.813C193.97 102.785 193.835 103.056 195.93 100.285C198.814 96.4323 201.743 91.7688 202.576 89.6962C202.802 89.133 203.387 87.7136 203.861 86.5422C204.356 85.3707 204.829 84.1992 204.919 83.9513C205.19 83.2079 205.415 83.9063 205.821 86.6773C206.429 90.8451 206.699 98.2346 206.406 102.966C206.271 105.264 206.113 107.201 206.068 107.269C206.023 107.336 205.933 108.102 205.843 108.958C205.438 113.058 203.297 120.966 201.292 125.742C196.606 136.849 190.186 145.748 181.444 153.272C176.984 157.08 170.608 160.955 165.021 163.23C163.309 163.951 161.619 164.649 161.236 164.807C159.569 165.55 151.549 167.218 147.719 167.646C145.106 167.938 138.144 167.938 138.144 167.668Z" fill="#E7EEF2" stroke="#E7EEF2" stroke-width="6"/>
<path d="M126.497 162.081C120.211 153.205 113.565 147.122 104.667 142.03C101.468 140.206 100.341 139.665 96.5788 138.2C92.8841 136.781 92.4335 136.669 88.1305 136.06C84.0078 135.497 77.2717 136.781 74.1627 138.719C73.4868 139.147 72.9236 139.237 70.3328 139.349C66.5255 139.507 62.7857 140.003 59.8119 140.746C54.3374 142.098 47.2634 145.027 41.834 148.181C38.8377 149.915 37.1931 150.231 34.805 149.51C32.5071 148.834 30.6597 145.838 30.9977 143.382C31.3356 140.926 32.9802 138.809 35.954 137.029C38.3871 135.565 43.7039 132.884 45.6639 132.163C52.6928 129.527 58.5728 127.972 65.0386 127.049C67.6068 126.666 78.5558 126.688 81.8225 127.049C83.1291 127.206 85.382 127.567 86.8464 127.882C90.113 128.558 97.2772 130.563 98.9443 131.262C107.798 134.979 111.921 137.209 117.981 141.602C123.478 145.59 130.372 151.898 133.819 156.088C134.54 156.989 134.562 157.08 134.247 157.575C133.819 158.229 128.232 164.041 128.029 164.041C127.961 164.041 127.263 163.162 126.497 162.081Z" fill="#E7EEF2" stroke="#E7EEF2" stroke-width="6"/>
<path d="M206.67 148.889C206.248 148.573 204.928 147.49 203.76 146.453C202.591 145.416 200.638 143.859 199.474 142.964C197.546 141.556 196.957 140.86 197.682 140.797C198.067 140.772 204.68 135.809 206.16 134.422C206.98 133.658 207.769 133.073 207.92 133.119C208.373 133.256 211.191 135.688 212.811 137.333C214.738 139.283 215.934 141.317 216.128 142.929C216.235 143.974 216.143 144.511 215.666 145.85C215.138 147.361 215.001 147.578 213.857 148.479C212.176 149.829 210.647 150.213 208.825 149.778C207.993 149.573 207.135 149.219 206.67 148.889Z" fill="#E7EEF2" stroke="#E7EEF2" stroke-width="6"/>
<path d="M118.094 123.602C117.913 123.557 116.99 123.399 116.066 123.264C109.826 122.273 100.206 118.443 94.5512 114.726C87.1167 109.792 82.7236 105.737 78.8712 100.24C77.3843 98.1444 77.0914 97.2883 77.0914 95.2833C77.0914 90.5297 82.4758 86.7224 85.7875 89.1329C86.2606 89.4709 87.725 91.0704 89.0317 92.6925C94.6864 99.6538 100.769 104.317 108.564 107.652C111.853 109.048 114.467 109.882 118.071 110.648C121.338 111.369 122.532 111.932 123.726 113.284C124.987 114.726 125.37 115.852 125.258 117.947C125.1 120.583 124.199 122.092 122.104 123.174C121.473 123.489 118.837 123.782 118.094 123.602Z" fill="#E7EEF2" stroke="#E7EEF2" stroke-width="6"/>
<path d="M138.028 114.501C135.887 115.919 135.046 120.068 136.408 122.479C137.406 124.271 139.534 125.743 141.469 126.015C141.959 126.067 144.103 125.942 146.216 125.728C150.627 125.261 157.014 125.399 160.75 126.062C167.612 127.278 173.343 129.46 179.355 133.087C185.157 136.613 186.41 136.997 188.511 135.892C189.83 135.183 191.382 133.075 191.847 131.271C192.306 129.594 192.193 127.27 191.599 126.208C189.552 122.618 180.789 117.586 171.903 114.911C167.594 113.602 165.375 113.156 160.519 112.56C155.112 111.881 149.634 111.925 144.253 112.606C142.519 112.837 138.837 113.97 138.028 114.501Z" fill="#E7EEF2" stroke="#E7EEF2" stroke-width="6"/>
<path d="M72.0225 85.8887C69.9273 85.3481 68.3953 83.7485 67.5618 81.2028C64.205 70.9297 64.0923 57.5251 67.314 47.2295C67.6294 46.2382 68.0349 44.7738 68.2151 43.9628C68.3953 43.1518 69.2064 41.1467 70.0174 39.5246C70.8059 37.88 71.4592 36.4382 71.4592 36.303C71.4592 36.1679 71.9999 35.2217 72.6758 34.2079C73.3291 33.1941 74.2077 31.7973 74.6358 31.0989C76.3029 28.3504 78.8036 25.2414 81.8675 22.1099C90.8339 12.9182 100.859 7.17339 113.34 4.06443C117.102 3.14075 119.626 2.84788 120.955 3.16328C125.258 4.26719 126.767 9.58397 123.816 13.4364C122.87 14.6755 121.608 15.2837 118.387 16.0047C108.429 18.2801 100.837 22.1325 94.033 28.3954C90.6762 31.4819 85.7424 37.5872 84.2556 40.4708C84.0753 40.8538 83.3544 42.2506 82.656 43.6023C81.2367 46.3283 79.2992 52.0506 78.8036 54.8892C77.6772 61.2874 77.8574 69.3076 79.2316 76.1113C80.1553 80.617 79.2091 83.6133 76.3029 85.303C75.2891 85.9113 73.194 86.2042 72.0225 85.8887Z" fill="#E7EEF2" stroke="#E7EEF2" stroke-width="6"/>
<path d="M182.796 85.2355C180.566 84.4244 179.214 82.6221 178.673 79.7159C178.448 78.4994 178.493 77.8686 178.989 74.7145C180.183 67.2575 180.25 62.0985 179.237 56.0157C178.381 50.8566 175.97 44.5936 172.884 39.4571C167.702 30.8286 158.893 23.1012 149.882 19.2714C146.638 17.8971 141.997 16.4778 139.158 15.9822C135.283 15.3063 134.224 14.6755 132.85 12.1748C132.264 11.116 132.174 10.733 132.174 9.15596C132.174 7.55642 132.242 7.21849 132.873 6.11458C134.314 3.56883 136.815 2.57757 140.33 3.16332C151.752 5.0332 162.746 10.3049 171.464 18.0548C180.611 26.1651 186.716 35.6272 190.343 47.2295C192.033 52.704 192.709 57.5477 192.731 64.3513C192.731 69.5555 192.484 72.2364 191.537 76.8998C190.501 81.9913 189.6 83.7711 187.482 84.8525C185.95 85.6184 184.306 85.7536 182.796 85.2355Z" fill="#E7EEF2" stroke="#E7EEF2" stroke-width="6"/>
</svg>
