<svg xmlns="http://www.w3.org/2000/svg" width="250" height="256" viewBox="0 0 250 256" fill="none">
<path d="M61.1374 255.504C58.7043 255.346 54.0409 254.738 51.9006 254.287C42.5737 252.327 32.4358 247.551 24.9788 241.559C22.3204 239.418 16.3728 233.448 14.3452 230.88C11.8446 227.726 8.55536 222.612 6.8657 219.21C2.45007 210.379 0.332374 202.201 0.0395003 192.761C-0.185787 184.966 0.535132 179.086 2.65283 171.517C4.4326 165.164 6.52777 160.613 9.83949 155.747C14.3903 149.123 16.3052 147.524 19.662 147.524C22.816 147.524 25.6772 150.407 25.7448 153.606C25.7673 155.206 25.159 156.445 22.5006 160.14C18.7383 165.366 16.1025 171.089 14.5029 177.487C13.5342 181.407 13.4441 182.015 13.0386 187.354C12.7682 191.297 13.2413 197.875 14.0749 201.525C16.3503 211.483 21.9825 221.26 29.7324 228.762C32.9089 231.826 36.5811 234.439 41.0643 236.873C43.3172 238.089 48.1158 240.094 50.1434 240.68C51.2022 240.995 52.1259 241.288 52.216 241.333C52.2836 241.401 54.131 241.761 56.2937 242.167C60.0785 242.888 60.4615 242.91 65.7558 242.933C70.0137 242.933 71.816 242.843 73.6408 242.527C79.0703 241.604 80.8726 241.131 85.153 239.418C95.336 235.363 102.613 229.889 108.786 221.666C110.227 219.751 112.097 217.475 112.773 216.845C113.539 216.146 115.634 215.335 116.738 215.335C119.014 215.335 121.176 216.732 122.235 218.895C122.753 219.954 122.866 220.472 122.866 221.868C122.866 224.009 122.213 225.405 119.577 228.965C110.453 241.243 98.3323 249.331 82.5397 253.702C79.3181 254.58 77.2454 254.918 71.8385 255.436C69.8335 255.639 63.6381 255.662 61.1374 255.504Z" fill="#05668D"/>
<path d="M180.652 255.414C176.417 255.121 172.587 254.558 169.726 253.837C167.135 253.161 160.376 250.953 158.461 250.142C155.803 249.016 152.041 247.078 152.131 246.898C152.199 246.785 153.055 246.695 154.001 246.673C157.177 246.628 160.264 246.087 163.17 245.073C164.477 244.622 168.036 242.753 169.636 241.649L170.447 241.108L173.015 241.604C178.399 242.685 180.382 242.888 185.271 242.91C191.691 242.91 196.963 242.099 201.807 240.342C211.134 236.985 217.87 232.615 223.254 226.419C227.174 221.936 229.585 218.376 232.063 213.42C233.009 211.528 234.879 206.887 235.037 206.098C235.082 205.783 235.284 204.927 235.465 204.183C235.96 202.291 236.681 198.258 236.952 195.848C237.515 191.049 236.997 185.147 235.42 178.929C234.428 174.941 233.707 172.981 231.905 169.264C230.351 166.065 229.134 164.195 226.025 160.027C224.628 158.157 223.322 156.265 223.119 155.814C221.587 152.12 225.011 147.591 229.314 147.659C231.522 147.704 233.167 148.74 235.555 151.624C242.471 159.937 247.225 170.052 248.937 179.965C249.725 184.561 249.861 185.913 249.973 190.216C250.108 195.442 249.748 199.272 248.554 205.085C245.242 221.531 234.609 236.67 219.965 245.862C212.508 250.548 203.609 253.882 195.859 254.873C190.407 255.594 185.541 255.752 180.652 255.414Z" fill="#05668D"/>
<path d="M118.721 245.141C118.766 245.005 119.329 244.487 119.937 243.947C121.221 242.865 125.998 238.202 127.755 236.309C128.408 235.611 129.535 234.394 130.278 233.628L131.585 232.209L133.252 233.741C136.068 236.309 142.421 241.243 143.367 241.626C143.953 241.829 143.728 242.325 142.984 242.572C141.182 243.136 135.73 244.397 133.567 244.735C130.774 245.186 118.586 245.501 118.721 245.141Z" fill="#05668D"/>
<path d="M156.366 235.588C153.212 235.183 151.117 234.259 147.513 231.668C144.967 229.821 144.539 229.461 141.295 226.262C135.167 220.246 128.048 211.077 122.979 202.719C120.929 199.34 116.648 190.531 114.305 184.921C112.278 180.1 108.11 172.778 105.542 169.512C103.469 166.921 100.698 163.834 98.7378 161.942C94.3673 157.729 90.988 155.319 85.3107 152.39C81.5034 150.407 79.0703 149.506 75.4431 148.65C74.2716 148.38 72.8523 148.019 72.2891 147.862L71.2753 147.591L73.3029 145.654C76.9075 142.207 79.2956 141.171 83.6661 141.148C86.7751 141.125 88.1944 141.418 92.0018 142.928C99.0983 145.699 106.353 151.196 112.841 158.675C116.919 163.384 121.604 170.908 124.421 177.262C130.639 191.229 132.553 194.947 136.924 201.367C138.208 203.282 139.582 205.31 139.965 205.873C140.867 207.202 144.989 212.316 146.769 214.321C153.528 221.936 160.85 227.163 168.577 229.889L170.379 230.519L169.208 231.556C167.946 232.682 164.77 234.439 162.967 235.003C161.908 235.341 158.642 235.881 158.056 235.814C157.898 235.791 157.155 235.701 156.366 235.588Z" fill="#05668D"/>
<path d="M169.617 209.329C169.617 211.475 167.878 213.214 165.732 213.214C163.586 213.214 161.847 211.475 161.847 209.329C161.847 207.183 163.586 205.444 165.732 205.444C167.878 205.444 169.617 207.183 169.617 209.329Z" fill="#05668D"/>
<path d="M181.056 209.325C181.056 211.458 179.326 213.188 177.193 213.188C175.059 213.188 173.329 211.458 173.329 209.325C173.329 207.191 175.059 205.461 177.193 205.461C179.326 205.461 181.056 207.191 181.056 209.325Z" fill="#05668D"/>
<path d="M202.547 209.291C202.547 211.432 200.811 213.167 198.671 213.167C196.53 213.167 194.794 211.432 194.794 209.291C194.794 207.15 196.53 205.415 198.671 205.415C200.811 205.415 202.547 207.15 202.547 209.291Z" fill="#05668D"/>
<path d="M214.108 209.343C214.108 211.495 212.364 213.24 210.212 213.24C208.06 213.24 206.315 211.495 206.315 209.343C206.315 207.191 208.06 205.447 210.212 205.447C212.364 205.447 214.108 207.191 214.108 209.343Z" fill="#05668D"/>
<path d="M45.187 211.28C42.4385 210.582 40.411 208.284 40.1406 205.513L40.0054 204.296H38.5861H37.1443V201.367V198.439H63.8408C78.5295 198.439 90.5374 198.506 90.5374 198.619C90.6725 200.917 90.6725 202.156 90.5824 203.102L90.4698 204.274L89.3208 204.341L88.1718 204.409L88.0141 205.738C87.7213 207.968 86.2344 209.928 84.0716 210.874C81.9539 211.821 78.4845 211.212 76.8399 209.635C75.781 208.622 74.7673 206.481 74.7673 205.265V204.296H64.2914H53.8155V205.265C53.8155 207.36 51.8781 210.018 49.6703 210.942C48.6114 211.393 46.3135 211.55 45.187 211.28ZM49.5488 204.736C49.5488 203.243 48.3385 202.033 46.8455 202.033C45.3525 202.033 44.1422 203.243 44.1422 204.736C44.1422 206.229 45.3525 207.439 46.8455 207.439C48.3385 207.439 49.5488 206.229 49.5488 204.736ZM84.0237 204.728C84.0237 203.24 82.8173 202.034 81.3292 202.034C79.8411 202.034 78.6347 203.24 78.6347 204.728C78.6347 206.216 79.8411 207.423 81.3292 207.423C82.8173 207.423 84.0237 206.216 84.0237 204.728Z" fill="#05668D"/>
<path d="M182.477 204.454C182.162 203.665 180.404 202.156 179.233 201.705C177.138 200.917 174.524 201.593 172.61 203.463L171.663 204.364L170.559 203.372C168.757 201.75 167.608 201.3 165.693 201.412C164.432 201.503 163.823 201.66 162.787 202.269C162.066 202.674 161.435 202.944 161.368 202.899C161.323 202.832 161.345 201.84 161.435 200.669L161.615 198.551H188.087H214.558L214.738 200.759C214.851 201.976 214.896 203.034 214.828 203.08C214.783 203.147 214.243 202.877 213.634 202.494C212.17 201.593 211.359 201.39 209.737 201.48C208.025 201.593 207.191 201.953 205.592 203.26C204.893 203.823 204.24 204.296 204.172 204.296C204.082 204.296 203.519 203.823 202.911 203.26C201.311 201.75 200.072 201.277 198.247 201.435C196.31 201.615 194.643 202.449 193.449 203.868L192.525 204.972H187.591C182.68 204.972 182.657 204.972 182.477 204.454Z" fill="#05668D"/>
<path d="M161.413 194.564C161.345 194.271 161.323 190.959 161.345 187.174L161.39 180.303L183.175 180.235L204.961 180.19L206.267 181.272C207.98 182.714 210.728 185.62 211.156 186.453L211.494 187.107L210.458 187.264C209.895 187.332 207.935 187.399 206.087 187.399C202.37 187.399 202.235 187.445 201.829 188.977C201.536 190.035 201.717 190.824 202.325 191.387C202.73 191.748 203.316 191.793 208.002 191.86C210.863 191.883 213.432 191.95 213.679 192.018C213.995 192.085 214.31 192.468 214.535 193.032C214.986 194.158 214.986 194.271 214.535 194.699C214.22 195.014 211.494 195.059 187.839 195.059H161.503L161.413 194.564Z" fill="#05668D"/>
<path d="M37.1443 188.301V181.79L38.6762 181.722L40.1857 181.655L40.2533 175.865L40.2983 170.052H45.6827H51.067L51.1572 182.286C51.2247 188.999 51.2247 194.564 51.1797 194.676C51.1346 194.766 47.9581 194.834 44.1057 194.834H37.1443V188.301Z" fill="#05668D"/>
<path d="M54.6491 194.699C54.4464 194.474 54.4689 170.661 54.6717 170.323C54.8294 170.12 56.091 170.052 60.2588 170.098L65.6432 170.165L65.7107 182.511L65.7558 194.834H60.2813C57.2625 194.834 54.7167 194.766 54.6491 194.699Z" fill="#05668D"/>
<path d="M69.1351 182.443V170.052L74.2716 170.097L79.3856 170.165L79.4983 176.811L79.6109 183.457L82.2243 183.525C85.2882 183.592 84.7475 183.209 88.262 187.783L90.5374 190.756V192.806V194.834H79.8362H69.1351V182.443ZM85.964 191.793C86.1217 191.32 85.4459 189.54 84.8151 188.864C84.387 188.368 84.1167 188.323 82.1567 188.256C79.7461 188.188 79.656 188.233 79.8587 189.495C80.1066 191.004 80.1967 191.252 80.6247 191.68C81.0077 192.063 81.3907 192.131 83.4408 192.131C85.3783 192.131 85.8514 192.063 85.964 191.793Z" fill="#05668D"/>
<path d="M139.042 180.686C137.217 176.991 135.82 173.77 135.82 173.319C135.82 173.071 144.606 173.116 144.606 173.387C144.606 173.477 143.953 175.572 143.142 178.05C142.353 180.528 141.587 182.984 141.452 183.525C141.317 184.043 141.137 184.471 141.047 184.471C140.957 184.471 140.056 182.781 139.042 180.686Z" fill="#05668D"/>
<path d="M135.144 164.668C135.144 164.443 135.707 163.767 140.912 157.864C142.511 156.062 144.223 154.102 144.719 153.516C145.598 152.48 145.665 152.435 148.324 151.804C159.453 149.056 169.703 142.748 176.755 134.232C184.798 124.544 189.596 113.415 190.768 101.813C190.97 99.7854 190.835 100.056 192.93 97.2847C195.814 93.4323 198.743 88.7688 199.576 86.6962C199.802 86.133 200.387 84.7136 200.861 83.5422C201.356 82.3707 201.829 81.1992 201.919 80.9513C202.19 80.2079 202.415 80.9063 202.821 83.6773C203.429 87.8451 203.699 95.2346 203.406 99.9656C203.271 102.264 203.113 104.201 203.068 104.269C203.023 104.336 202.933 105.102 202.843 105.958C202.438 110.058 200.297 117.966 198.292 122.742C193.606 133.849 187.186 142.748 178.444 150.272C173.984 154.08 167.608 157.955 162.021 160.23C160.309 160.951 158.619 161.649 158.236 161.807C156.569 162.55 148.549 164.218 144.719 164.646C142.106 164.938 135.144 164.938 135.144 164.668Z" fill="#05668D"/>
<path d="M123.497 159.081C117.211 150.205 110.565 144.122 101.667 139.03C98.4675 137.206 97.3411 136.665 93.5788 135.2C89.8841 133.781 89.4335 133.669 85.1305 133.06C81.0078 132.497 74.2717 133.781 71.1627 135.719C70.4868 136.147 69.9236 136.237 67.3328 136.349C63.5255 136.507 59.7857 137.003 56.8119 137.746C51.3374 139.098 44.2634 142.027 38.834 145.181C35.8377 146.915 34.1931 147.231 31.805 146.51C29.5071 145.834 27.6597 142.838 27.9977 140.382C28.3356 137.926 29.9802 135.809 32.954 134.029C35.3871 132.565 40.7039 129.884 42.6639 129.163C49.6928 126.527 55.5728 124.972 62.0386 124.049C64.6068 123.666 75.5558 123.688 78.8225 124.049C80.1291 124.206 82.382 124.567 83.8464 124.882C87.113 125.558 94.2772 127.563 95.9443 128.262C104.798 131.979 108.921 134.209 114.981 138.602C120.478 142.59 127.372 148.898 130.819 153.088C131.54 153.989 131.562 154.08 131.247 154.575C130.819 155.229 125.232 161.041 125.029 161.041C124.961 161.041 124.263 160.162 123.497 159.081Z" fill="#05668D"/>
<path d="M211.179 147.884C210.683 147.704 209.106 147.051 207.687 146.397C206.267 145.744 203.947 144.82 202.573 144.302C200.32 143.514 199.554 143.018 200.23 142.748C200.59 142.612 205.479 135.944 206.493 134.187C207.056 133.218 207.642 132.429 207.799 132.429C208.272 132.429 211.674 133.939 213.702 135.043C216.112 136.349 217.847 137.949 218.5 139.436C218.906 140.405 218.974 140.945 218.906 142.365C218.838 143.964 218.771 144.212 217.937 145.406C216.721 147.186 215.369 147.997 213.499 148.109C212.643 148.154 211.719 148.064 211.179 147.884Z" fill="#05668D"/>
<path d="M137.96 141.846C137.082 140.945 131.923 136.349 129.535 134.344L127.665 132.767L128.746 132.61C129.354 132.52 131.067 132.339 132.553 132.204C139.267 131.551 145.282 130.109 153.505 127.18C155.938 126.302 163.057 122.742 166.572 120.647C170.109 118.529 174.952 115.375 175.133 115.06C175.223 114.947 175.358 114.857 175.493 114.857C175.741 114.857 174.119 118.056 172.677 120.399C170.019 124.77 164.049 131.145 160.038 133.916C159.678 134.164 158.687 134.84 157.876 135.426C155.938 136.778 150.599 139.458 148.436 140.179C145.26 141.216 141.114 142.297 139.875 142.41C138.726 142.522 138.591 142.477 137.96 141.846Z" fill="#05668D"/>
<path d="M115.094 120.602C114.913 120.557 113.99 120.399 113.066 120.264C106.826 119.273 97.2058 115.443 91.5511 111.726C84.1167 106.792 79.7236 102.737 75.8711 97.2396C74.3842 95.1444 74.0914 94.2883 74.0914 92.2833C74.0914 87.5297 79.4757 83.7224 82.7875 86.1329C83.2606 86.4709 84.7249 88.0704 86.0316 89.6925C91.6863 96.6538 97.7691 101.317 105.564 104.652C108.853 106.048 111.467 106.882 115.071 107.648C118.338 108.369 119.532 108.932 120.726 110.284C121.987 111.726 122.37 112.852 122.258 114.947C122.1 117.583 121.199 119.092 119.104 120.174C118.473 120.489 115.837 120.782 115.094 120.602Z" fill="#05668D"/>
<path d="M133.184 120.512C130.796 119.903 128.724 116.412 129.197 113.798C129.535 111.861 130.999 109.856 132.666 109C133.094 108.797 135.077 108.234 137.059 107.76C141.205 106.792 146.949 104.652 150.126 102.872C155.961 99.6051 160.467 95.8203 164.77 90.6386C168.915 85.6147 169.929 84.8713 172.181 85.2092C173.601 85.4345 175.673 86.8538 176.665 88.3407C177.611 89.715 178.242 91.8552 178.039 93.0042C177.318 96.9016 170.965 104.223 163.756 109.45C160.264 111.996 158.394 113.1 154.181 115.172C149.495 117.493 144.516 119.183 139.425 120.264C137.78 120.602 134.085 120.737 133.184 120.512Z" fill="#05668D"/>
<path d="M51.2473 113.257C50.9769 112.446 49.9406 107.535 49.6477 105.62C49.1521 102.556 48.8142 94.4009 48.9719 90.1881C49.107 86.4483 49.4675 82.1453 49.6702 81.4695C49.873 80.7936 50.1884 81.0189 50.4588 82.0327C51.45 85.6373 54.4914 92.1931 57.2174 96.6538C59.8758 100.979 63.6606 106.206 66.5893 109.585C67.2426 110.351 67.7833 111.027 67.7833 111.117C67.7833 111.185 67.3328 111.252 66.7695 111.252C64.0886 111.252 54.6942 112.604 51.8555 113.415C51.5176 113.505 51.3148 113.438 51.2473 113.257Z" fill="#05668D"/>
<path d="M69.0225 82.8887C66.9273 82.3481 65.3953 80.7485 64.5618 78.2028C61.205 67.9297 61.0923 54.5251 64.314 44.2295C64.6294 43.2382 65.0349 41.7738 65.2151 40.9628C65.3953 40.1518 66.2064 38.1467 67.0174 36.5246C67.8059 34.88 68.4592 33.4382 68.4592 33.303C68.4592 33.1679 68.9999 32.2217 69.6758 31.2079C70.3291 30.1941 71.2077 28.7973 71.6358 28.0989C73.3029 25.3504 75.8036 22.2414 78.8675 19.1099C87.8339 9.91822 97.8592 4.17339 110.34 1.06443C114.102 0.140754 116.626 -0.15212 117.955 0.163282C122.258 1.26719 123.767 6.58397 120.816 10.4364C119.87 11.6755 118.608 12.2837 115.387 13.0047C105.429 15.2801 97.8367 19.1325 91.033 25.3954C87.6762 28.4819 82.7424 34.5872 81.2556 37.4708C81.0753 37.8538 80.3544 39.2506 79.656 40.6023C78.2367 43.3283 76.2992 49.0506 75.8036 51.8892C74.6772 58.2874 74.8574 66.3076 76.2316 73.1113C77.1553 77.617 76.2091 80.6133 73.3029 82.303C72.2891 82.9113 70.194 83.2041 69.0225 82.8887Z" fill="#05668D"/>
<path d="M179.796 82.2355C177.566 81.4244 176.214 79.6221 175.673 76.7159C175.448 75.4994 175.493 74.8686 175.989 71.7145C177.183 64.2575 177.25 59.0985 176.237 53.0157C175.381 47.8566 172.97 41.5936 169.884 36.4571C164.702 27.8286 155.893 20.1012 146.882 16.2714C143.638 14.8971 138.997 13.4778 136.158 12.9822C132.283 12.3063 131.224 11.6755 129.85 9.17481C129.264 8.11596 129.174 7.73297 129.174 6.15596C129.174 4.55642 129.242 4.21849 129.873 3.11458C131.314 0.568834 133.815 -0.42243 137.33 0.163317C148.752 2.0332 159.746 7.30492 168.464 15.0548C177.611 23.1651 183.716 32.6272 187.343 44.2295C189.033 49.704 189.709 54.5477 189.731 61.3513C189.731 66.5555 189.484 69.2364 188.537 73.8998C187.501 78.9913 186.6 80.7711 184.482 81.8525C182.95 82.6184 181.306 82.7536 179.796 82.2355Z" fill="#05668D"/>
<path d="M106.983 74.6658C104.235 73.9449 102.68 71.9398 102.478 68.8984L102.365 67.2088L100.18 67.1412L97.9719 67.0736V64.5279V61.9596L98.9631 61.892C99.5038 61.8469 112.142 61.8244 127.011 61.8695L154.091 61.9145L154.023 64.5729L153.956 67.2088L153.235 67.1412C152.401 67.0961 152.356 67.1637 152.198 69.5292C151.883 73.4718 147.805 75.9049 143.547 74.6433C141.745 74.1026 140.709 73.2014 139.763 71.3315C139.064 69.9348 138.952 69.5067 139.019 68.4479L139.087 67.2088L129.737 67.1412C124.601 67.1187 119.329 67.1637 118.045 67.2538L115.702 67.4341L115.679 68.8984C115.612 71.3315 114.395 73.1564 112.12 74.2828C110.588 75.0713 108.876 75.1839 106.983 74.6658ZM111.535 68.4027C111.535 66.9369 110.347 65.7486 108.881 65.7486C107.415 65.7486 106.227 66.9369 106.227 68.4027C106.227 69.8685 107.415 71.0568 108.881 71.0568C110.347 71.0568 111.535 69.8685 111.535 68.4027ZM148.389 68.4715C148.389 67.0098 147.204 65.8248 145.742 65.8248C144.281 65.8248 143.096 67.0098 143.096 68.4715C143.096 69.9333 144.281 71.1183 145.742 71.1183C147.204 71.1183 148.389 69.9333 148.389 68.4715Z" fill="#05668D"/>
<path d="M97.9268 47.6764C97.8817 41.9316 97.9042 37.178 97.9944 37.0654C98.0619 36.9753 107.073 36.9302 118.022 36.9528L137.96 37.0203V47.4962V57.9721L117.977 58.0396L97.9944 58.0847L97.9268 47.6764Z" fill="#05668D"/>
<path d="M141.723 51.8442L141.79 45.5812L143.592 45.6038C145.552 45.6263 146.837 45.9417 147.85 46.6851C148.188 46.9555 149.765 48.7803 151.32 50.7628L154.158 54.3674L154.181 56.1697V57.972L147.918 58.0396L141.678 58.0847L141.723 51.8442ZM149.427 54.3674C149.563 54.007 149.202 52.813 148.707 52.047C148.121 51.1458 147.287 50.8755 144.922 50.8755H142.736L142.894 52.2723C143.142 54.3224 143.255 54.435 144.899 54.5477C148.459 54.7504 149.292 54.7054 149.427 54.3674Z" fill="#05668D"/>
</svg>